# xmcd
#
# Track frame offsets: 
#        150
#        10534
#        25666
#        48790
#        64990
#        81691
#        95600
#        104818
#        126793
#        147459
#        159174
#        166614
#        193505
#        210810
#        231308
#        245976
#        263688
#        264295
#        264902
#        265509
#        266116
#        266723
#        267330
#        267937
#        268544
#        269151
#        269758
#        270365
#        270972
#        271579
#        272186
#        272793
#        273400
#        274007
#        274614
#        275221
#        275828
#        276435
#        277042
#        277649
#        278256
#        278863
#        279470
#        280077
#        303647
#
# Disc length: 4314 seconds
#
# Revision: 0
# Processed by: cddbd v1.5.2PL0 Copyright (c) Steve Scherf et al.
# Submitted via: ExactAudioCopy v0.95b4
#
DISCID=c910d82d
DTITLE=Dead Prez - Lets Get Free
DYEAR=2000
DGENRE=Rap
TTITLE0=Wolves
TTITLE1=I'm A African
TTITLE2=They Schools
TTITLE3=Hip-Hop
TTITLE4=Police State
TTITLE5=Behind Enemy Lines
TTITLE6=Assassination
TTITLE7=Mind Sex
TTITLE8=We Want Freedom
TTITLE9=Be Healthy
TTITLE10=Discipline
TTITLE11=Psychology
TTITLE12=Happiness
TTITLE13=Animal In Man
TTITLE14=You'll Find A Way
TTITLE15=It's Bigger Than Hip-Hop
TTITLE16=[Silence]
TTITLE17=[Silence]
TTITLE18=[Silence]
TTITLE19=[Silence]
TTITLE20=[Silence]
TTITLE21=[Silence]
TTITLE22=[Silence]
TTITLE23=[Silence]
TTITLE24=[Silence]
TTITLE25=[Silence]
TTITLE26=[Silence]
TTITLE27=[Silence]
TTITLE28=[Silence]
TTITLE29=[Silence]
TTITLE30=[Silence]
TTITLE31=[Silence]
TTITLE32=[Silence]
TTITLE33=[Silence]
TTITLE34=[Silence]
TTITLE35=[Silence]
TTITLE36=[Silence]
TTITLE37=[Silence]
TTITLE38=[Silence]
TTITLE39=[Silence]
TTITLE40=[Silence]
TTITLE41=[Silence]
TTITLE42=[Silence]
TTITLE43=Propaganda
TTITLE44=Pistol
EXTD=
EXTT0=
EXTT1=
EXTT2=
EXTT3=
EXTT4=
EXTT5=
EXTT6=
EXTT7=
EXTT8=
EXTT9=
EXTT10=
EXTT11=
EXTT12=
EXTT13=
EXTT14=
EXTT15=
EXTT16=
EXTT17=
EXTT18=
EXTT19=
EXTT20=
EXTT21=
EXTT22=
EXTT23=
EXTT24=
EXTT25=
EXTT26=
EXTT27=
EXTT28=
EXTT29=
EXTT30=
EXTT31=
EXTT32=
EXTT33=
EXTT34=
EXTT35=
EXTT36=
EXTT37=
EXTT38=
EXTT39=
EXTT40=
EXTT41=
EXTT42=
EXTT43=
EXTT44=
PLAYORDER=
